# xmcd
#
# Track frame offsets:
# 150
# 41035
# 48224
# 78855
# 93974
# 101509
# 107194
# 132562
#
# Disc length: 2658 seconds
#
#
# Revision: 0
# Processed by: cddbd v1.4PL0 Copyright (c) Steve Scherf et al.
# Submitted via: FreeRIP 2.30 
#
DISCID=600a6008
DTITLE=Fuck The Facts - Escunta
DYEAR=2001
DGENRE=Black Metal
TTITLE0=Ottawa
TTITLE1=My Revenge
TTITLE2=Shoes =Power
TTITLE3=Fuck The Facts Is Sexy
TTITLE4=Killing Matt With Alcohol
TTITLE5=Whats The Deal?
TTITLE6=They Call It Dance Musick
TTITLE7=Brown Noise
EXTD=fuck the facts
EXTT0=
EXTT1=
EXTT2=
EXTT3=
EXTT4=
EXTT5=
EXTT6=
EXTT7=
PLAYORDER=
